<svg xmlns="http://www.w3.org/2000/svg" version="1.1" xmlns:xlink="http://www.w3.org/1999/xlink" xmlns:svgjs="http://svgjs.dev/svgjs" width="1000" height="1000" viewBox="0 0 1000 1000"><rect width="1000" height="1000" fill="#000000"></rect><g transform="matrix(0.7,0,0,0.7,149.57575757575756,282.1265587044535)"><svg viewBox="0 0 396 247" data-background-color="#4b91f1" preserveAspectRatio="xMidYMid meet" height="623" width="1000" xmlns="http://www.w3.org/2000/svg" xmlns:xlink="http://www.w3.org/1999/xlink"><defs></defs><g id="tight-bounds" transform="matrix(1,0,0,1,0.2400000000000091,-0.09999999999999432)"><svg viewBox="0 0 395.52 247.2" height="247.2" width="395.52"><g><svg></svg></g><g><svg viewBox="0 0 395.52 247.2" height="247.2" width="395.52"><g transform="matrix(1,0,0,1,75.54432,106.97841114587885)"><svg viewBox="0 0 244.43135999999998 33.243177708242285" height="33.243177708242285" width="244.43135999999998"><g><svg viewBox="0 0 244.43135999999998 33.243177708242285" height="33.243177708242285" width="244.43135999999998"><g><svg viewBox="0 0 244.43135999999998 33.243177708242285" height="33.243177708242285" width="244.43135999999998"><g><svg viewBox="0 0 244.43135999999998 33.243177708242285" height="33.243177708242285" width="244.43135999999998"><g><svg viewBox="0 0 244.43135999999998 33.243177708242285" height="33.243177708242285" width="244.43135999999998"><g><svg viewBox="0 0 244.43135999999998 33.243177708242285" height="33.243177708242285" width="244.43135999999998"><g transform="matrix(1,0,0,1,0,0)"><svg width="244.43135999999998" viewBox="0.5400000214576721 -37.5 279.28997802734375 37.9900016784668" height="33.243177708242285" data-palette-color="#ffffff"><path d="M21.73 0L19.82-7.28 10.03-7.28 8.13 0 0.54 0 11.65-35.55 18.21-35.55 29.39 0 21.73 0ZM14.92-25.93L11.6-13.26 18.24-13.26 14.92-25.93ZM31.22-26.42L37.69-26.42 37.89-23.97Q40.21-26.9 44.02-26.9L44.02-26.9Q47.97-26.9 49.61-23.34L49.61-23.34Q51.88-26.9 56.08-26.9L56.08-26.9Q63.01-26.9 63.18-17.31L63.18-17.31 63.18 0 56.27 0 56.27-16.87Q56.27-19.17 55.64-20.14 55-21.12 53.49-21.12L53.49-21.12Q51.56-21.12 50.61-18.75L50.61-18.75 50.66-17.92 50.66 0 43.75 0 43.75-16.82Q43.75-19.09 43.14-20.1 42.53-21.12 40.96-21.12L40.96-21.12Q39.18-21.12 38.13-19.19L38.13-19.19 38.13 0 31.22 0 31.22-26.42ZM99.31 0L92.35 0Q92.06-0.61 91.76-2.05L91.76-2.05Q89.91 0.49 86.74 0.49L86.74 0.49Q83.42 0.49 81.23-1.71 79.05-3.91 79.05-7.4L79.05-7.4Q79.05-11.55 81.69-13.82 84.34-16.09 89.32-16.14L89.32-16.14 91.42-16.14 91.42-18.26Q91.42-20.04 90.81-20.78 90.2-21.51 89.03-21.51L89.03-21.51Q86.44-21.51 86.44-18.48L86.44-18.48 79.53-18.48Q79.53-22.14 82.28-24.52 85.03-26.9 89.23-26.9L89.23-26.9Q93.57-26.9 95.95-24.65 98.33-22.39 98.33-18.19L98.33-18.19 98.33-5.76Q98.38-2.34 99.31-0.42L99.31-0.42 99.31 0ZM88.27-4.93L88.27-4.93Q89.42-4.93 90.23-5.4 91.03-5.86 91.42-6.49L91.42-6.49 91.42-11.99 89.76-11.99Q88.01-11.99 86.99-10.86 85.98-9.74 85.98-7.86L85.98-7.86Q85.98-4.93 88.27-4.93ZM103.16-26.42L109.66-26.42 109.85-23.8Q112.2-26.9 115.98-26.9L115.98-26.9Q122.79-26.9 122.99-17.36L122.99-17.36 122.99 0 116.05 0 116.05-16.85Q116.05-19.09 115.38-20.1 114.71-21.12 113.03-21.12L113.03-21.12Q111.15-21.12 110.1-19.19L110.1-19.19 110.1 0 103.16 0 103.16-26.42ZM158.68 0L156.77-7.28 146.98-7.28 145.08 0 137.49 0 148.59-35.55 155.16-35.55 166.34 0 158.68 0ZM151.86-25.93L148.54-13.26 155.19-13.26 151.86-25.93ZM170.03-32.91L176.94-32.91 176.94-26.42 180.48-26.42 180.48-21.22 176.94-21.22 176.94-8.11Q176.94-6.54 177.36-5.96 177.79-5.37 179.01-5.37L179.01-5.37Q180.01-5.37 180.65-5.54L180.65-5.54 180.6-0.17Q178.84 0.49 176.79 0.49L176.79 0.49Q170.1 0.49 170.03-7.18L170.03-7.18 170.03-21.22 166.97-21.22 166.97-26.42 170.03-26.42 170.03-32.91ZM191-37.5L191-24.1Q193.24-26.9 196.51-26.9L196.51-26.9Q200.13-26.9 202.01-24.37 203.89-21.83 203.91-16.8L203.91-16.8 203.91 0 196.98 0 196.98-16.72Q196.98-19.04 196.26-20.08 195.54-21.12 193.93-21.12L193.93-21.12Q192.05-21.12 191-19.38L191-19.38 191 0 184.09 0 184.09-37.5 191-37.5ZM219.53 0.49L219.53 0.49Q214.21 0.49 211.23-2.69 208.25-5.86 208.25-11.77L208.25-11.77 208.25-13.87Q208.25-20.12 210.99-23.51 213.72-26.9 218.83-26.9L218.83-26.9Q223.81-26.9 226.32-23.72 228.83-20.53 228.88-14.28L228.88-14.28 228.88-10.89 215.14-10.89Q215.29-7.96 216.43-6.6 217.58-5.25 219.97-5.25L219.97-5.25Q223.44-5.25 225.76-7.62L225.76-7.62 228.47-3.44Q227.2-1.68 224.78-0.6 222.37 0.49 219.53 0.49ZM215.19-15.72L215.19-15.72 222.1-15.72 222.1-16.36Q222.05-18.73 221.32-19.95 220.58-21.17 218.78-21.17 216.97-21.17 216.15-19.87 215.33-18.58 215.19-15.72ZM240.04-26.42L240.04 0 233.1 0 233.1-26.42 240.04-26.42ZM232.79-33.25L232.79-33.25Q232.79-34.86 233.81-35.89 234.84-36.91 236.55-36.91 238.26-36.91 239.28-35.89 240.31-34.86 240.31-33.25L240.31-33.25Q240.31-31.67 239.29-30.62 238.28-29.57 236.55-29.57 234.81-29.57 233.8-30.62 232.79-31.67 232.79-33.25ZM257.08-7.08L257.08-7.08Q257.08-7.96 256.23-8.7 255.39-9.45 252.49-10.72L252.49-10.72Q248.21-12.45 246.62-14.31 245.02-16.16 245.02-18.92L245.02-18.92Q245.02-22.39 247.52-24.65 250.02-26.9 254.15-26.9L254.15-26.9Q258.49-26.9 261.11-24.66 263.72-22.41 263.72-18.63L263.72-18.63 256.81-18.63Q256.81-21.85 254.12-21.85L254.12-21.85Q253.02-21.85 252.32-21.17 251.61-20.48 251.61-19.26L251.61-19.26Q251.61-18.38 252.39-17.71 253.17-17.04 256.08-15.8L256.08-15.8Q260.3-14.23 262.05-12.32 263.79-10.4 263.79-7.35L263.79-7.35Q263.79-3.81 261.13-1.66 258.47 0.49 254.15 0.49L254.15 0.49Q251.24 0.49 249.02-0.65 246.8-1.78 245.54-3.81 244.28-5.83 244.28-8.18L244.28-8.18 250.85-8.18Q250.9-6.37 251.69-5.47 252.49-4.57 254.29-4.57L254.29-4.57Q257.08-4.57 257.08-7.08ZM269.21-32.91L276.12-32.91 276.12-26.42 279.66-26.42 279.66-21.22 276.12-21.22 276.12-8.11Q276.12-6.54 276.54-5.96 276.97-5.37 278.19-5.37L278.19-5.37Q279.19-5.37 279.83-5.54L279.83-5.54 279.78-0.17Q278.02 0.49 275.97 0.49L275.97 0.49Q269.28 0.49 269.21-7.18L269.21-7.18 269.21-21.22 266.16-21.22 266.16-26.42 269.21-26.42 269.21-32.91Z" opacity="1" transform="matrix(1,0,0,1,0,0)" fill="#ffffff" class="undefined-text-0" data-fill-palette-color="primary" id="text-0"></path></svg></g></svg></g></svg></g></svg></g></svg></g></svg></g></svg></g><g><path d="M151.089 148.07A122.216 122.216 0 1 0 151.089 99.13L154.087 99.13A119.218 119.218 0 1 1 154.087 148.07L151.089 148.07" fill="#ffffff" stroke="transparent" data-fill-palette-color="tertiary"></path></g></svg></g></svg><rect width="395.52" height="247.2" fill="none" stroke="none" visibility="hidden"></rect></g></svg></g></svg>